<svg id="Layer_2" data-name="Layer 2" xmlns="http://www.w3.org/2000/svg" viewBox="0 0 421.28 251.67"><defs><style>.cls-1{fill:#ff7c00;}</style></defs><title>chee-tah</title><path class="cls-1" d="M379.68,205.42c-84.58-39.91,25.65-15.81-25.33-63.66-41-35.12-30.67-9.35-28.05-5-11.5,7.82-39.07-23.95-23.59,14.86-34,44.07-97.85,71.38-151.35,78.22a47.51,47.51,0,0,1-43-17.41l-.05-.07c-6.31-9.12-6.51-21.73-2.58-33.84,6.2-19.1,22.33-33.23,41.85-37.93,53.81-13,32.27-35.4-27.17-7.94-40,18.5-50.37,70.32-21.07,103.3a98.67,98.67,0,0,1,9.91,13.2L51.91,371.25C177.54,235,316.17,188.89,473.19,264.7,473.42,254.88,419.76,231.75,379.68,205.42Zm-44.83-53.14c0-9.58,13.84-9.82,13.84,0S334.85,161.87,334.85,152.28Z" transform="translate(-51.91 -119.58)"/></svg>